# xmcd
#
# Track frame offsets:
# 150
# 23764
# 46616
# 69155
# 90578
# 113449
# 137417
# 160593
# 184101
# 210562
# 229528
# 249551
# 268524
# 286681
#
# Disc length: 4110 seconds
#
#
# Revision: 0
# Processed by: cddbd v1.5.2PL0 Copyright (c) Steve Scherf et al.
# Submitted via: FreeRIP 2.944 
#
DISCID=a2100c0e
DTITLE=LAmour-Sackett02 - Far-Blue-Mt6
DYEAR=1976
DGENRE=Booty Bass
TTITLE0=601
TTITLE1=602
TTITLE2=603
TTITLE3=604
TTITLE4=605
TTITLE5=606
TTITLE6=607
TTITLE7=608
TTITLE8=609
TTITLE9=610
TTITLE10=611
TTITLE11=612
TTITLE12=613
TTITLE13=614
EXTD=To the Far Blue Mountains by Louis A'mour\nread by John Curless - Sacketts 1976\nRandom House Inc 8 CDs -  western=booty
EXTT0=
EXTT1=
EXTT2=
EXTT3=
EXTT4=
EXTT5=
EXTT6=
EXTT7=
EXTT8=
EXTT9=
EXTT10=
EXTT11=
EXTT12=
EXTT13=
PLAYORDER=
